<svg width="190" height="107" xmlns="http://www.w3.org/2000/svg"><path d="M6.614.914h-.763c-3.731 0-4.579 5.666-4.749 7.31H0L.254 0h18.063l.254 8.225H17.47C17.299 6.67 16.451.914 12.72.914h-.763v23.852h2.798v.914H3.731v-.914H6.53V.914h.084zM21.43.269c1.14 0 3.745-.18 5.7-.269v13.2h.08c.978-1.707 2.525-2.515 4.316-2.515 3.012 0 4.152 2.245 4.152 4.4v9.787h1.466v.808h-6.92v-.808h1.383V14.277c0-1.347-.407-2.066-1.791-2.066-1.303 0-2.606 1.617-2.606 4.76v7.811h1.466v.808h-7.084v-.808h1.547V1.077h-1.71V.27zm25.714 15.424v-1.857c0-1.696.686-2.423 2.143-2.423 1.028 0 2.143.081 2.143 2.342v1.938h-4.286zm1.078-5.706c-4.124 0-6.792 3.877-6.792 7.754 0 4.431 2.587 7.939 7.035 7.939 3.072 0 5.256-2.03 5.822-5.077h-.89c-.485 2.77-2.345 4.062-4.69 4.062-1.779 0-2.83-1.385-2.83-4.34v-3.692h8.329c0-3.508-2.426-6.646-5.984-6.646zm-21.58 94.164c8.485 0 14.292-4.493 14.292-10.848 0-16.656-38.076-15.67-38.076-39.01 0-13.369 9.156-20.053 22.332-20.053 6.476 0 11.054 1.753 16.414 4.274l3.684-3.178h2.792v18.519h-3.015c-2.345-7.671-7.481-16.876-19.987-16.876-8.486 0-13.734 3.288-13.734 9.753 0 14.026 40.086 13.478 40.086 39.448 0 7.78-6.477 20.82-25.235 20.82-6.365 0-11.501-1.863-16.302-4.931l-4.913 3.616H2.857v-20.71l3.238-.11c1.005 8.109 7.593 19.286 20.545 19.286zM81.72 38.288v53.09c0 8.63 5.044 12.126 13.114 12.126 12.442 0 16.59-6.117 16.59-16.386v-48.83h-7.062v-2.621h18.495v2.621h-7.062v47.957c0 7.974-1.008 20.755-25.444 20.755-21.634 0-28.023-9.285-28.023-17.588V38.288h-6.614v-2.621H88.67v2.621h-6.95zm62.6 67.615h-20.034v-2.634h7.485V38.3h-7.485v-2.634h25.867l27.959 42.031h.33V38.301h-7.595v-2.634H190V38.3h-7.265V107h-5.283l-41.058-61.347h-.33v57.616h8.255v2.634z"/></svg>